<svg width="24" height="24" viewBox="0 0 24 24" fill="none" xmlns="http://www.w3.org/2000/svg">
<path fill-rule="evenodd" clip-rule="evenodd" d="M14.3401 4H11.3689C10.0224 4 8.95581 4 8.12143 4.11208C7.26287 4.22783 6.56767 4.47103 6.01899 5.01899C5.47103 5.56767 5.22783 6.26287 5.11208 7.12143C5 7.95655 5 9.02242 5 10.3689V14.8052C5.00002 15.4597 5.23364 16.0927 5.65882 16.5903C6.08399 17.0878 6.67281 17.4173 7.31928 17.5194C7.41964 18.079 7.61377 18.5567 8.00202 18.9457C8.44302 19.3867 8.9983 19.5757 9.6576 19.665C10.2927 19.75 11.1007 19.75 12.1022 19.75H14.3804C15.3818 19.75 16.1898 19.75 16.825 19.665C17.4843 19.5757 18.0395 19.3867 18.4805 18.9457C18.9215 18.5047 19.1105 17.9494 19.1999 17.2901C19.2849 16.6549 19.2849 15.8469 19.2849 14.8455V11.1022C19.2849 10.1007 19.2849 9.29273 19.1999 8.6576C19.1105 7.9983 18.9215 7.44302 18.4805 7.00202C18.0915 6.61377 17.6139 6.41964 17.0542 6.31928C16.9522 5.67281 16.6227 5.08399 16.1251 4.65882C15.6276 4.23364 14.9946 4.00002 14.3401 4ZM15.9005 6.21306C15.7891 5.8878 15.5788 5.60552 15.299 5.40572C15.0192 5.20593 14.6839 5.09863 14.3401 5.09884H11.4099C10.0129 5.09884 9.02101 5.1003 8.26721 5.2014C7.53099 5.30029 7.1061 5.48636 6.79623 5.79623C6.48636 6.1061 6.30029 6.53099 6.2014 7.26794C6.1003 8.02101 6.09884 9.0129 6.09884 10.4099V14.8052C6.09863 15.149 6.20593 15.4843 6.40572 15.7641C6.60552 16.0439 6.8878 16.2542 7.21306 16.3656C7.19767 15.9187 7.19767 15.4133 7.19767 14.8455V11.1022C7.19767 10.1007 7.19767 9.29273 7.28338 8.6576C7.37129 7.9983 7.56176 7.44302 8.00202 7.00202C8.44302 6.56102 8.9983 6.37202 9.6576 6.28338C10.2927 6.19767 11.1007 6.19767 12.1022 6.19767H14.3804C14.9481 6.19767 15.4536 6.19767 15.9005 6.21306ZM8.77853 7.78C8.98145 7.57708 9.26569 7.44522 9.80412 7.3727C10.3565 7.29871 11.0905 7.29724 12.1417 7.29724H14.3394C15.3906 7.29724 16.1239 7.29871 16.6777 7.3727C17.2154 7.44522 17.4996 7.57781 17.7026 7.78C17.9055 7.98292 18.0373 8.26715 18.1099 8.80558C18.1838 9.35793 18.1853 10.092 18.1853 11.1432V14.806C18.1853 15.8572 18.1838 16.5905 18.1099 17.1443C18.0373 17.682 17.9047 17.9662 17.7026 18.1691C17.4996 18.3721 17.2154 18.5039 16.677 18.5764C16.1239 18.6504 15.3906 18.6519 14.3394 18.6519H12.1417C11.0905 18.6519 10.3565 18.6504 9.80338 18.5764C9.26569 18.5039 8.98145 18.3713 8.77853 18.1691C8.57562 17.9662 8.44376 17.682 8.37123 17.1436C8.29724 16.5905 8.29578 15.8572 8.29578 14.806V11.1432C8.29578 10.092 8.29724 9.35793 8.37123 8.80485C8.44376 8.26715 8.57635 7.98292 8.77853 7.78Z" fill="#8522FB"/>
</svg>
