<svg width="512" height="512" viewBox="0 0 512 512" fill="none" xmlns="http://www.w3.org/2000/svg">
<path fill-rule="evenodd" clip-rule="evenodd" d="M128.528 197.904C101.03 170.406 56.4474 170.406 28.9495 197.904L20.6419 206.212C-6.85595 233.709 -6.85589 278.292 20.642 305.79L206.22 491.369C233.718 518.867 278.301 518.866 305.799 491.369L491.377 305.79C518.875 278.292 518.875 233.709 491.377 206.212L482.789 197.623C455.291 170.126 410.708 170.126 383.21 197.623L305.518 275.316C278.02 302.813 233.438 302.813 205.94 275.316L128.528 197.904Z" fill="url(#paint0_linear_270_2816)"/>
<mask id="mask0_270_2816" style="mask-type:alpha" maskUnits="userSpaceOnUse" x="0" y="177" width="513" height="335">
<path fill-rule="evenodd" clip-rule="evenodd" d="M128.528 197.904C101.03 170.406 56.4474 170.406 28.9495 197.904L20.6419 206.212C-6.85595 233.709 -6.85589 278.292 20.642 305.79L206.22 491.369C233.718 518.867 278.301 518.866 305.799 491.369L491.377 305.79C518.875 278.292 518.875 233.709 491.377 206.212L482.789 197.623C455.291 170.126 410.708 170.126 383.21 197.623L305.518 275.316C278.02 302.813 233.438 302.813 205.94 275.316L128.528 197.904Z" fill="#03BEFE"/>
</mask>
<g mask="url(#mask0_270_2816)">
<path d="M7.56474 303.046C147.11 402.264 269.372 317.769 325.062 256.318L220.083 229.433L170.794 175.023L109.983 127.654C70.2961 131.922 -10.9986 140.457 -18.68 140.457C-26.3614 140.457 -53.4596 182.278 -66.0486 203.188L7.56474 303.046Z" fill="#03BEFE"/>
</g>
<circle cx="256.453" cy="88.8462" r="88.4527" fill="#00C2FF"/>
<defs>
<linearGradient id="paint0_linear_270_2816" x1="38.2188" y1="441.614" x2="469.655" y2="315.774" gradientUnits="userSpaceOnUse">
<stop stop-color="#03BEFE"/>
<stop offset="1" stop-color="#8522FB"/>
</linearGradient>
</defs>
</svg>
