<svg width="50" height="50" viewBox="0 0 50 50" fill="none" xmlns="http://www.w3.org/2000/svg">
<path fill-rule="evenodd" clip-rule="evenodd" d="M15.6632 20.745C13.6492 18.731 10.3838 18.731 8.36981 20.745L7.76148 21.3533C5.74748 23.3673 5.74747 26.6327 7.76148 28.6467L21.3536 42.2388C23.3677 44.2528 26.633 44.2528 28.647 42.2388L42.2392 28.6467C44.2532 26.6327 44.2532 23.3673 42.2392 21.3533L41.6102 20.7244C39.5962 18.7104 36.3309 18.7104 34.3169 20.7244L28.6264 26.4149C26.6124 28.4289 23.3471 28.4289 21.3331 26.4149L15.6632 20.745Z" fill="url(#paint0_linear_312_2209)"/>
<mask id="mask0_312_2209" style="mask-type:alpha" maskUnits="userSpaceOnUse" x="6" y="19" width="38" height="25">
<path fill-rule="evenodd" clip-rule="evenodd" d="M15.6632 20.745C13.6492 18.731 10.3838 18.731 8.36981 20.745L7.76148 21.3533C5.74748 23.3673 5.74747 26.6327 7.76148 28.6467L21.3536 42.2388C23.3677 44.2528 26.633 44.2528 28.647 42.2388L42.2392 28.6467C44.2532 26.6327 44.2532 23.3673 42.2392 21.3533L41.6102 20.7244C39.5962 18.7104 36.3309 18.7104 34.3169 20.7244L28.6264 26.4149C26.6124 28.4289 23.3471 28.4289 21.3331 26.4149L15.6632 20.745Z" fill="#03BEFE"/>
</mask>
<g mask="url(#mask0_312_2209)">
<path d="M6.80371 28.4459C17.0243 35.7129 25.9791 29.5242 30.0579 25.0234L22.369 23.0543L18.759 19.0692L14.3051 15.5999C11.3983 15.9124 5.44409 16.5375 4.88149 16.5375C4.31889 16.5375 2.33415 19.6006 1.41211 21.1321L6.80371 28.4459Z" fill="#03BEFE"/>
</g>
<circle cx="25.0329" cy="12.7573" r="6.47847" fill="#00C2FF"/>
<defs>
<linearGradient id="paint0_linear_312_2209" x1="9.04885" y1="38.5947" x2="40.6482" y2="29.3779" gradientUnits="userSpaceOnUse">
<stop stop-color="#03BEFE"/>
<stop offset="1" stop-color="#8522FB"/>
</linearGradient>
</defs>
</svg>
