<svg width="646" height="100" viewBox="0 0 646 100" fill="none" xmlns="http://www.w3.org/2000/svg">
<path fill-rule="evenodd" clip-rule="evenodd" d="M125.102 38.6533C119.731 33.2826 111.023 33.2826 105.653 38.6533L104.031 40.2753C98.6599 45.646 98.6599 54.3536 104.031 59.7243L140.276 95.9701C145.647 101.341 154.355 101.341 159.725 95.9701L195.971 59.7243C201.342 54.3536 201.342 45.646 195.971 40.2753L194.294 38.5983C188.923 33.2276 180.216 33.2276 174.845 38.5983L159.67 53.7731C154.3 59.1437 145.592 59.1437 140.221 53.7731L125.102 38.6533Z" fill="url(#paint0_linear_272_2827)"/>
<mask id="mask0_272_2827" style="mask-type:alpha" maskUnits="userSpaceOnUse" x="100" y="34" width="100" height="66">
<path fill-rule="evenodd" clip-rule="evenodd" d="M125.102 38.6533C119.731 33.2826 111.023 33.2826 105.653 38.6533L104.031 40.2753C98.6599 45.646 98.6599 54.3536 104.031 59.7243L140.276 95.9701C145.647 101.341 154.355 101.341 159.725 95.9701L195.971 59.7243C201.342 54.3536 201.342 45.646 195.971 40.2753L194.294 38.5983C188.923 33.2276 180.216 33.2276 174.845 38.5983L159.67 53.7731C154.3 59.1437 145.592 59.1437 140.221 53.7731L125.102 38.6533Z" fill="#03BEFE"/>
</mask>
<g mask="url(#mask0_272_2827)">
<path d="M101.477 59.1888C128.732 78.5673 152.611 62.0643 163.488 50.0622L142.984 44.8112L133.357 34.1843L121.48 24.9326C113.729 25.7661 97.8511 27.4331 96.3508 27.4331C94.8505 27.4331 89.5579 35.6012 87.0991 39.6853L101.477 59.1888Z" fill="#03BEFE"/>
</g>
<circle cx="150.088" cy="17.3526" r="17.2759" fill="#00C2FF"/>
<path d="M246.676 27.8636L257.223 61.017H257.628L268.196 27.8636H278.423L263.381 71.5H251.491L236.428 27.8636H246.676ZM283.505 71.5V38.7727H292.582V71.5H283.505ZM288.065 34.554C286.715 34.554 285.558 34.1065 284.592 33.2116C283.64 32.3026 283.164 31.2159 283.164 29.9517C283.164 28.7017 283.64 27.6293 284.592 26.7344C285.558 25.8253 286.715 25.3707 288.065 25.3707C289.414 25.3707 290.565 25.8253 291.516 26.7344C292.482 27.6293 292.965 28.7017 292.965 29.9517C292.965 31.2159 292.482 32.3026 291.516 33.2116C290.565 34.1065 289.414 34.554 288.065 34.554ZM311.912 72.0327C309.426 72.0327 307.175 71.3935 305.158 70.1151C303.155 68.8224 301.564 66.9261 300.385 64.4261C299.221 61.9119 298.638 58.8295 298.638 55.179C298.638 51.429 299.242 48.3111 300.449 45.8253C301.657 43.3253 303.262 41.4574 305.265 40.2216C307.282 38.9716 309.49 38.3466 311.891 38.3466C313.723 38.3466 315.25 38.6591 316.472 39.2841C317.708 39.8949 318.702 40.6619 319.455 41.5852C320.222 42.4943 320.804 43.3892 321.202 44.2699H321.479V27.8636H330.534V71.5H321.586V66.2585H321.202C320.776 67.1676 320.172 68.0696 319.391 68.9645C318.624 69.8452 317.623 70.5767 316.387 71.1591C315.165 71.7415 313.674 72.0327 311.912 72.0327ZM314.789 64.8097C316.252 64.8097 317.488 64.4119 318.496 63.6165C319.519 62.8068 320.3 61.6776 320.84 60.2287C321.394 58.7798 321.671 57.0824 321.671 55.1364C321.671 53.1903 321.401 51.5 320.861 50.0653C320.321 48.6307 319.54 47.5227 318.517 46.7415C317.495 45.9602 316.252 45.5696 314.789 45.5696C313.297 45.5696 312.04 45.9744 311.017 46.7841C309.995 47.5938 309.221 48.7159 308.695 50.1506C308.169 51.5852 307.907 53.2472 307.907 55.1364C307.907 57.0398 308.169 58.723 308.695 60.1861C309.235 61.6349 310.009 62.7713 311.017 63.5952C312.04 64.4048 313.297 64.8097 314.789 64.8097ZM376.669 43.1406H367.337C367.166 41.9332 366.818 40.8608 366.293 39.9233C365.767 38.9716 365.092 38.1619 364.268 37.4943C363.445 36.8267 362.493 36.3153 361.413 35.9602C360.348 35.6051 359.19 35.4276 357.94 35.4276C355.682 35.4276 353.714 35.9886 352.038 37.1108C350.362 38.2188 349.062 39.8381 348.139 41.9688C347.216 44.0852 346.754 46.6563 346.754 49.6818C346.754 52.7926 347.216 55.4063 348.139 57.5227C349.077 59.6392 350.384 61.2372 352.06 62.3168C353.736 63.3963 355.675 63.9361 357.876 63.9361C359.112 63.9361 360.256 63.7727 361.307 63.446C362.372 63.1193 363.317 62.6435 364.141 62.0185C364.964 61.3793 365.646 60.6051 366.186 59.696C366.74 58.7869 367.124 57.75 367.337 56.5852L376.669 56.6278C376.428 58.6307 375.824 60.5625 374.858 62.4233C373.906 64.2699 372.621 65.9247 371.001 67.3878C369.396 68.8366 367.479 69.9872 365.249 70.8395C363.033 71.6776 360.526 72.0966 357.727 72.0966C353.835 72.0966 350.355 71.2159 347.287 69.4545C344.233 67.6932 341.818 65.1435 340.043 61.8054C338.281 58.4673 337.401 54.4261 337.401 49.6818C337.401 44.9233 338.295 40.875 340.085 37.5369C341.875 34.1989 344.304 31.6563 347.372 29.9091C350.44 28.1477 353.892 27.267 357.727 27.267C360.256 27.267 362.599 27.6222 364.759 28.3324C366.932 29.0426 368.857 30.0795 370.533 31.4432C372.209 32.7926 373.572 34.4474 374.624 36.4077C375.689 38.3679 376.371 40.6122 376.669 43.1406ZM397.901 72.1392C394.592 72.1392 391.729 71.4361 389.315 70.0298C386.914 68.6094 385.06 66.6349 383.754 64.1065C382.447 61.5639 381.793 58.6165 381.793 55.2642C381.793 51.8835 382.447 48.929 383.754 46.4006C385.06 43.858 386.914 41.8835 389.315 40.4773C391.729 39.0568 394.592 38.3466 397.901 38.3466C401.211 38.3466 404.066 39.0568 406.467 40.4773C408.881 41.8835 410.742 43.858 412.049 46.4006C413.356 48.929 414.009 51.8835 414.009 55.2642C414.009 58.6165 413.356 61.5639 412.049 64.1065C410.742 66.6349 408.881 68.6094 406.467 70.0298C404.066 71.4361 401.211 72.1392 397.901 72.1392ZM397.944 65.108C399.45 65.108 400.707 64.6818 401.715 63.8295C402.724 62.9631 403.484 61.7841 403.995 60.2926C404.521 58.8011 404.783 57.1037 404.783 55.2003C404.783 53.2969 404.521 51.5994 403.995 50.108C403.484 48.6165 402.724 47.4375 401.715 46.571C400.707 45.7045 399.45 45.2713 397.944 45.2713C396.424 45.2713 395.146 45.7045 394.109 46.571C393.086 47.4375 392.312 48.6165 391.786 50.108C391.275 51.5994 391.019 53.2969 391.019 55.2003C391.019 57.1037 391.275 58.8011 391.786 60.2926C392.312 61.7841 393.086 62.9631 394.109 63.8295C395.146 64.6818 396.424 65.108 397.944 65.108ZM419.911 71.5V38.7727H428.562V44.5469H428.945C429.627 42.6293 430.763 41.1165 432.354 40.0085C433.945 38.9006 435.849 38.3466 438.065 38.3466C440.309 38.3466 442.219 38.9077 443.796 40.0298C445.373 41.1378 446.424 42.6435 446.95 44.5469H447.29C447.958 42.6719 449.165 41.1733 450.913 40.0511C452.674 38.9148 454.755 38.3466 457.156 38.3466C460.21 38.3466 462.688 39.3196 464.592 41.2656C466.509 43.1974 467.468 45.9389 467.468 49.4901V71.5H458.413V51.2798C458.413 49.4616 457.93 48.098 456.964 47.1889C455.998 46.2798 454.79 45.8253 453.342 45.8253C451.694 45.8253 450.408 46.3509 449.485 47.402C448.562 48.4389 448.1 49.8097 448.1 51.5142V71.5H439.3V51.0881C439.3 49.483 438.839 48.2045 437.915 47.2528C437.006 46.3011 435.806 45.8253 434.315 45.8253C433.306 45.8253 432.397 46.081 431.587 46.5923C430.792 47.0895 430.16 47.7926 429.691 48.7017C429.222 49.5966 428.988 50.6477 428.988 51.8551V71.5H419.911ZM474.808 71.5V27.8636H483.885V44.2699H484.162C484.56 43.3892 485.135 42.4943 485.888 41.5852C486.655 40.6619 487.649 39.8949 488.871 39.2841C490.107 38.6591 491.641 38.3466 493.473 38.3466C495.859 38.3466 498.061 38.9716 500.078 40.2216C502.095 41.4574 503.707 43.3253 504.915 45.8253C506.122 48.3111 506.726 51.429 506.726 55.179C506.726 58.8295 506.136 61.9119 504.957 64.4261C503.793 66.9261 502.202 68.8224 500.185 70.1151C498.182 71.3935 495.937 72.0327 493.452 72.0327C491.69 72.0327 490.192 71.7415 488.956 71.1591C487.734 70.5767 486.733 69.8452 485.952 68.9645C485.17 68.0696 484.574 67.1676 484.162 66.2585H483.757V71.5H474.808ZM483.693 55.1364C483.693 57.0824 483.963 58.7798 484.503 60.2287C485.043 61.6776 485.824 62.8068 486.847 63.6165C487.869 64.4119 489.112 64.8097 490.575 64.8097C492.053 64.8097 493.303 64.4048 494.325 63.5952C495.348 62.7713 496.122 61.6349 496.648 60.1861C497.187 58.723 497.457 57.0398 497.457 55.1364C497.457 53.2472 497.195 51.5852 496.669 50.1506C496.143 48.7159 495.369 47.5938 494.347 46.7841C493.324 45.9744 492.067 45.5696 490.575 45.5696C489.098 45.5696 487.848 45.9602 486.825 46.7415C485.817 47.5227 485.043 48.6307 484.503 50.0653C483.963 51.5 483.693 53.1903 483.693 55.1364ZM527.569 72.1392C524.26 72.1392 521.397 71.4361 518.983 70.0298C516.582 68.6094 514.728 66.6349 513.421 64.1065C512.115 61.5639 511.461 58.6165 511.461 55.2642C511.461 51.8835 512.115 48.929 513.421 46.4006C514.728 43.858 516.582 41.8835 518.983 40.4773C521.397 39.0568 524.26 38.3466 527.569 38.3466C530.879 38.3466 533.734 39.0568 536.135 40.4773C538.549 41.8835 540.41 43.858 541.717 46.4006C543.024 48.929 543.677 51.8835 543.677 55.2642C543.677 58.6165 543.024 61.5639 541.717 64.1065C540.41 66.6349 538.549 68.6094 536.135 70.0298C533.734 71.4361 530.879 72.1392 527.569 72.1392ZM527.612 65.108C529.118 65.108 530.375 64.6818 531.383 63.8295C532.392 62.9631 533.152 61.7841 533.663 60.2926C534.189 58.8011 534.451 57.1037 534.451 55.2003C534.451 53.2969 534.189 51.5994 533.663 50.108C533.152 48.6165 532.392 47.4375 531.383 46.571C530.375 45.7045 529.118 45.2713 527.612 45.2713C526.092 45.2713 524.814 45.7045 523.777 46.571C522.754 47.4375 521.98 48.6165 521.454 50.108C520.943 51.5994 520.687 53.2969 520.687 55.2003C520.687 57.1037 520.943 58.8011 521.454 60.2926C521.98 61.7841 522.754 62.9631 523.777 63.8295C524.814 64.6818 526.092 65.108 527.612 65.108Z" fill="#1D1F24"/>
<defs>
<linearGradient id="paint0_linear_272_2827" x1="107.464" y1="86.2525" x2="191.728" y2="61.6742" gradientUnits="userSpaceOnUse">
<stop stop-color="#03BEFE"/>
<stop offset="1" stop-color="#8522FB"/>
</linearGradient>
</defs>
</svg>
